<?xml version="1.0" standalone="no"?>
<!DOCTYPE svg PUBLIC "-//W3C//DTD SVG 20010904//EN"
 "http://www.w3.org/TR/2001/REC-SVG-20010904/DTD/svg10.dtd">
<svg version="1.0" xmlns="http://www.w3.org/2000/svg"
 width="73.000000pt" height="73.000000pt" viewBox="0 0 73.000000 73.000000"
 preserveAspectRatio="xMidYMid meet">
<metadata>
Created by potrace 1.14, written by Peter Selinger 2001-2017
</metadata>
<g transform="translate(0.000000,73.000000) scale(0.100000,-0.100000)"
fill="#000000" stroke="none">
<path d="M240 611 c-5 -11 -10 -33 -10 -50 0 -31 -1 -31 -53 -31 -29 0 -58 -5
-65 -12 -7 -7 -12 -40 -12 -80 l0 -68 265 0 265 0 0 63 c0 82 -11 95 -80 99
-55 3 -55 3 -58 38 -6 57 -13 60 -133 60 -97 0 -109 -2 -119 -19z m210 -56 c0
-25 -1 -25 -85 -25 -84 0 -85 0 -85 25 0 25 1 25 85 25 84 0 85 0 85 -25z"/>
<path d="M107 334 c-12 -13 -8 -169 5 -182 9 -9 78 -12 249 -12 285 0 271 -6
267 114 l-3 81 -95 0 -95 0 -3 -32 -3 -33 -64 0 -64 0 -3 33 -3 32 -90 3 c-50
1 -94 0 -98 -4z"/>
</g>
</svg>
